<?xml version="1.0" encoding="UTF-8" standalone="no"?>
<svg
   xmlns:dc="http://purl.org/dc/elements/1.1/"
   xmlns:cc="http://creativecommons.org/ns#"
   xmlns:rdf="http://www.w3.org/1999/02/22-rdf-syntax-ns#"
   xmlns:svg="http://www.w3.org/2000/svg"
   xmlns="http://www.w3.org/2000/svg"
   xmlns:xlink="http://www.w3.org/1999/xlink"
   xmlns:sodipodi="http://sodipodi.sourceforge.net/DTD/sodipodi-0.dtd"
   xmlns:inkscape="http://www.inkscape.org/namespaces/inkscape"
   width="139"
   height="20"
   version="1.1"
   id="svg54"
   sodipodi:docname="logo-white.svg"
   inkscape:version="1.0.1 (3bc2e813f5, 2020-09-07)">
  <metadata
     id="metadata58">
    <rdf:RDF>
      <cc:Work
         rdf:about="">
        <dc:format>image/svg+xml</dc:format>
        <dc:type
           rdf:resource="http://purl.org/dc/dcmitype/StillImage" />
        <dc:title />
      </cc:Work>
    </rdf:RDF>
  </metadata>
  <sodipodi:namedview
     pagecolor="#ffffff"
     bordercolor="#666666"
     borderopacity="1"
     objecttolerance="10"
     gridtolerance="10"
     guidetolerance="10"
     inkscape:pageopacity="0"
     inkscape:pageshadow="2"
     inkscape:window-width="1920"
     inkscape:window-height="1027"
     id="namedview56"
     showgrid="false"
     inkscape:zoom="7.6846157"
     inkscape:cx="39.471583"
     inkscape:cy="20.41041"
     inkscape:window-x="-8"
     inkscape:window-y="-8"
     inkscape:window-maximized="1"
     inkscape:current-layer="svg54"
     inkscape:document-rotation="0" />
  <defs
     id="defs40">
    <linearGradient
       id="a"
       x1="72.195%"
       x2="17.503%"
       y1="0%"
       y2="100%">
      <stop
         offset="0%"
         stop-color="#33D35E"
         id="stop35" />
      <stop
         offset="100%"
         stop-color="#2AB6D9"
         id="stop37" />
    </linearGradient>
    <linearGradient
       inkscape:collect="always"
       xlink:href="#a"
       id="linearGradient60"
       x1="13.130968"
       y1="0"
       x2="3.18348"
       y2="18.188196"
       gradientTransform="scale(0.92307123,1.08334)"
       gradientUnits="userSpaceOnUse" />
    <linearGradient
       inkscape:collect="always"
       xlink:href="#a"
       id="linearGradient62"
       x1="21.113017"
       y1="0"
       x2="11.165529"
       y2="18.188196"
       gradientTransform="scale(0.92307123,1.08334)"
       gradientUnits="userSpaceOnUse" />
    <linearGradient
       inkscape:collect="always"
       xlink:href="#a"
       id="linearGradient64"
       x1="29.096234"
       y1="0"
       x2="19.149042"
       y2="18.187654"
       gradientTransform="scale(0.92304374,1.0833723)"
       gradientUnits="userSpaceOnUse" />
    <linearGradient
       inkscape:collect="always"
       xlink:href="#a"
       id="linearGradient66"
       x1="17.993343"
       y1="0"
       x2="4.3623174"
       y2="24.923254"
       gradientTransform="scale(1.264883,0.79058697)"
       gradientUnits="userSpaceOnUse" />
  </defs>
  <g
     fill="none"
     fill-rule="evenodd"
     id="g52"
     transform="matrix(1,0,0,1.0391955,0,0.13014981)">
    <path
       fill="#2d314d"
       fill-rule="nonzero"
       d="m 37.754,15.847 c 2.852,0 5.152,-1.622 5.952,-4.216 h -3.897 c -0.376,0.665 -1.14,1.066 -2.055,1.066 -1.237,0 -2.065,-0.674 -2.32,-1.978 h 8.44 c 0.051,-0.352 0.081,-0.694 0.081,-1.037 0,-3.335 -2.537,-5.95 -6.201,-5.95 -3.568,0 -6.175,2.564 -6.175,6.049 0,3.473 2.628,6.066 6.175,6.066 z M 40.098,8.55 h -4.596 c 0.317,-1.129 1.11,-1.749 2.252,-1.749 1.181,0 2,0.613 2.344,1.75 z m 10.946,7.296 c 1.32,0 2.5,-0.434 3.43,-1.188 l 0.336,0.804 h 3.027 V 4.093 h -2.919 l -0.4,0.88 c -0.94,-0.775 -2.135,-1.222 -3.474,-1.222 -3.476,0 -5.961,2.505 -5.961,6.026 0,3.533 2.485,6.07 5.961,6.07 z m 0.524,-3.467 c -1.467,0 -2.545,-1.108 -2.545,-2.593 0,-1.475 1.069,-2.583 2.545,-2.583 1.466,0 2.544,1.108 2.544,2.583 0,1.485 -1.078,2.593 -2.544,2.593 z m 13.123,3.467 c 3.02,0 5.025,-1.554 5.025,-3.93 0,-2.883 -2.387,-3.256 -4.183,-3.575 -1.08,-0.193 -1.95,-0.344 -1.95,-0.99 0,-0.527 0.422,-0.838 1.05,-0.838 0.71,0 1.197,0.337 1.197,1.063 h 3.667 c -0.044,-2.303 -1.92,-3.843 -4.816,-3.843 -2.912,0 -4.854,1.47 -4.854,3.75 0,2.757 2.337,3.289 4.1,3.574 1.092,0.181 1.952,0.368 1.952,1.024 0,0.587 -0.543,0.88 -1.116,0.88 -0.742,0 -1.32,-0.383 -1.32,-1.214 h -3.77 c 0.036,2.463 1.919,4.1 5.018,4.1 z m 8.1,3.858 c 2.936,0 4.344,-1.257 5.877,-4.736 L 83.432,4.105 H 79.226 L 76.977,10.368 74.565,4.105 H 70.31 l 4.698,10.43 c -0.53,1.414 -0.983,1.804 -2.48,1.804 H 71.45 v 3.365 z m 18.504,-3.858 c 3.5,0 5.973,-2.515 5.973,-6.048 0,-3.533 -2.472,-6.048 -5.973,-6.048 A 5.332,5.332 0 0 0 88.47,4.534 V 0 H 84.6 v 15.474 h 2.897 l 0.37,-0.844 c 0.923,0.771 2.102,1.216 3.428,1.216 z m -0.523,-3.467 c -1.467,0 -2.545,-1.108 -2.545,-2.58 0,-1.486 1.078,-2.594 2.545,-2.594 1.466,0 2.544,1.108 2.544,2.593 0,1.473 -1.087,2.58 -2.544,2.58 z m 13.598,3.467 c 1.32,0 2.5,-0.434 3.43,-1.188 l 0.336,0.804 h 3.027 V 4.093 h -2.918 l -0.401,0.88 c -0.939,-0.775 -2.135,-1.222 -3.474,-1.222 -3.476,0 -5.96,2.505 -5.96,6.026 0,3.533 2.484,6.07 5.96,6.07 z m 0.524,-3.467 c -1.467,0 -2.545,-1.108 -2.545,-2.593 0,-1.475 1.07,-2.583 2.545,-2.583 1.467,0 2.545,1.108 2.545,2.583 0,1.485 -1.078,2.593 -2.545,2.593 z m 12.653,3.095 V 9.403 c 0,-1.447 0.702,-2.3 1.923,-2.3 0.986,0 1.483,0.657 1.483,1.98 v 6.39 h 3.915 v -6.93 c 0,-2.897 -1.733,-4.773 -4.373,-4.773 -1.47,0 -2.733,0.565 -3.58,1.508 l -0.537,-1.172 h -2.747 v 11.369 h 3.916 z m 13.748,0 v -4.808 l 2.848,4.808 h 4.616 l -3.902,-5.95 3.543,-5.419 h -4.397 l -2.708,4.454 V 0 h -3.916 v 15.474 z"
       id="path42" />
    <g
       fill="url(#a)"
       id="g50"
       style="fill:url(#linearGradient66)"
       transform="matrix(0.98761461,0,0,0.96821941,0.39044944,0)">
      <path
         d="M 10.802,0 0,19.704 H 5.986 L 16.789,0 Z"
         id="path44"
         style="fill:url(#linearGradient60)" />
      <path
         opacity="0.5"
         d="M 18.171,0 7.368,19.704 h 5.986 L 24.157,0 Z"
         id="path46"
         style="fill:url(#linearGradient62)" />
      <path
         opacity="0.15"
         d="M 25.539,0 14.737,19.704 h 5.986 L 31.525,0 Z"
         id="path48"
         style="fill:url(#linearGradient64)" />
    </g>
  </g>
  <path
     style="fill:#f9f9f9;stroke:none;stroke-width:0.13015"
     d="M 36.054653,16.298849 C 33.301687,15.55906 31.369458,12.639053 31.676372,9.68234 32.020148,6.3705122 34.474646,4.1220823 37.74196,4.1259907 c 1.899253,0.00227 3.351347,0.6103379 4.525515,1.8950641 1.081106,1.1829023 1.588713,2.524656 1.591467,4.2067072 l 0.0015,0.943586 h -4.246138 -4.246137 l 0.08366,0.41832 c 0.355618,1.778092 2.738916,2.395082 4.124656,1.067794 0.329847,-0.315934 0.372195,-0.321473 2.186071,-0.285933 l 1.849707,0.03624 -0.422017,0.845973 c -0.747394,1.49822 -2.149532,2.617958 -3.824525,3.054238 -0.95002,0.247449 -2.370882,0.243529 -3.311115,-0.0091 z M 40.07968,8.7465784 C 39.703291,7.7566023 38.824901,7.1449636 37.771803,7.1395625 36.746306,7.134303 36.005353,7.6335703 35.600439,8.6026657 l -0.203183,0.4862856 h 2.406297 2.406296 z"
     id="path68" />
  <path
     style="fill:#f9f9f9;stroke-width:0.13015"
     d="M 49.300449,16.256197 C 48.261324,15.923948 47.532021,15.46643 46.808455,14.69288 44.344998,12.059245 44.71668,7.3122127 47.549636,5.2267096 49.375168,3.882829 52.076923,3.761234 53.85601,4.9428854 c 0.307813,0.2044467 0.61075,0.3717213 0.673193,0.3717213 0.06244,0 0.181183,-0.2049859 0.263868,-0.4555243 l 0.150337,-0.4555243 h 1.421554 1.421555 V 10.2603 16.117041 h -1.483991 -1.483991 l -0.136111,-0.390449 c -0.07486,-0.214747 -0.166408,-0.39045 -0.203437,-0.39045 -0.03703,0 -0.347555,0.177753 -0.690057,0.395007 -1.250057,0.792927 -3.007656,0.998525 -4.488481,0.525048 z m 3.68696,-3.635647 c 0.710328,-0.450477 1.051678,-1.095945 1.13012,-2.136977 0.172061,-2.2834709 -1.934359,-3.6436751 -3.916997,-2.5293702 -1.399926,0.7868021 -1.652296,3.1944652 -0.456038,4.3506892 0.560238,0.54149 0.913801,0.670325 1.866963,0.680304 0.652178,0.0068 0.889277,-0.05601 1.375952,-0.364646 z"
     id="path70" />
  <path
     style="fill:#f9f9f9;stroke-width:0.13015"
     d="m 62.992509,16.32125 c -1.744426,-0.485392 -2.950023,-1.756101 -3.191052,-3.363396 l -0.09225,-0.615157 h 1.836875 c 1.772786,0 1.836875,0.0094 1.836875,0.270311 0,0.148671 0.171197,0.441508 0.380438,0.650749 0.66297,0.66297 1.945541,0.462721 2.145762,-0.33502 0.09596,-0.382348 -0.08288,-0.783331 -0.432939,-0.970676 -0.133909,-0.07167 -0.914759,-0.272484 -1.735223,-0.446262 -1.687917,-0.35751 -2.354919,-0.651887 -3.013475,-1.329982 -0.588589,-0.6060497 -0.788264,-1.1986673 -0.784828,-2.3292889 0.0023,-0.7570431 0.06679,-1.0283728 0.381488,-1.6051011 0.651219,-1.1934453 1.780804,-1.8872957 3.398714,-2.0876692 2.883651,-0.3571319 5.305044,1.0052083 5.599044,3.1501714 l 0.08329,0.6076738 h -1.774713 c -1.66567,0 -1.774713,-0.015413 -1.774713,-0.2508534 0,-0.6924534 -1.530437,-1.0820052 -2.082397,-0.5300455 -0.482883,0.4828832 -0.271872,1.1925069 0.421988,1.4191324 0.233192,0.076164 0.917772,0.2315414 1.521289,0.3452827 2.7434,0.517033 3.743962,1.3739618 3.884133,3.3265558 0.146006,2.033866 -1.157622,3.631589 -3.381711,4.144618 -0.760523,0.175429 -2.512283,0.147717 -3.226598,-0.05104 z"
     id="path72" />
  <path
     style="fill:#f9f9f9;stroke-width:0.13035"
     d="m 71.452247,18.910601 v -1.681184 l 1.138811,-0.05554 c 1.377131,-0.06716 1.71632,-0.254278 2.178475,-1.201796 l 0.330461,-0.67751 -2.228239,-5.151768 C 71.646223,7.30933 70.59266,4.8588519 70.530503,4.697296 l -0.113012,-0.2937379 2.046639,0.00141 2.046638,0.00141 1.179956,3.2297045 c 0.648975,1.7763376 1.230975,3.2187954 1.293332,3.2054614 0.06236,-0.01333 0.607348,-1.4673375 1.21109,-3.2311183 l 1.097713,-3.2068745 h 2.001511 c 1.10083,0 2.00151,0.029583 2.00151,0.06574 0,0.1313668 -4.985622,11.8994178 -5.33708,12.5976328 -1.273788,2.530534 -2.804858,3.524856 -5.427624,3.524856 h -1.078929 z"
     id="path74" />
  <path
     style="fill:#f9f9f9;stroke-width:0.13015"
     d="m 89.868446,16.325001 c -0.642689,-0.203788 -1.581096,-0.679347 -1.690798,-0.856849 -0.157024,-0.254069 -0.432389,-0.12863 -0.567322,0.25844 l -0.136111,0.390449 H 86.100872 84.727528 V 8.1779026 0.23876404 h 1.822097 1.822098 V 2.5923064 c 0,1.2944485 0.04393,2.3314795 0.09761,2.3045135 1.343703,-0.67492 1.371656,-0.6815327 2.895834,-0.6850412 1.432761,-0.0033 1.536937,0.015404 2.43775,0.4376294 1.099867,0.5155256 2.154641,1.5349807 2.698409,2.6080557 0.987519,1.9487762 0.887025,4.6440552 -0.24519,6.5760342 -0.395194,0.674346 -1.436181,1.655089 -2.135368,2.011788 -1.224102,0.62449 -3.120911,0.838474 -4.252324,0.479715 z m 2.152511,-3.594426 c 0.804136,-0.41024 1.218796,-1.149824 1.275625,-2.275194 0.03792,-0.7508532 -0.0055,-1.0378973 -0.220576,-1.4595532 C 91.957594,6.8035602 88.767354,7.21461 88.252054,9.617375 c -0.292473,1.363754 0.229173,2.583289 1.356382,3.171032 0.564256,0.294212 1.779564,0.265078 2.412521,-0.05783 z"
     id="path76" />
  <path
     style="fill:#f9f9f9;stroke-width:0.0495754"
     d="m 101.64023,12.859763 c 0.16558,-0.242793 0.26904,-1.056993 0.28703,-2.258876 0.0201,-1.3411073 -0.0866,-2.4939576 -0.26059,-2.8169206 -0.21811,-0.4047963 -0.42103,0.6208386 -0.44544,2.2515306 -0.0258,1.719947 0.18827,3.162598 0.419,2.824266 z"
     id="path78" />
  <path
     style="fill:#f9f9f9;stroke-width:0.13015"
     d="m 102.86645,16.447563 c -1.41059,-0.332539 -2.936121,-1.513717 -3.650716,-2.826664 -1.001345,-1.839801 -1.0044,-4.4715533 -0.0075,-6.4402556 1.404866,-2.7742872 5.273226,-3.8410427 7.895956,-2.1774182 0.34465,0.218615 0.67378,0.3683408 0.73141,0.332724 0.0576,-0.035617 0.17808,-0.2417166 0.26767,-0.4579997 l 0.16288,-0.3932418 h 1.41586 1.41586 v 5.8567423 5.856741 h -1.48093 -1.48094 l -0.16173,-0.390449 c -0.0889,-0.214747 -0.18701,-0.39045 -0.21791,-0.39045 -0.0309,0 -0.27272,0.147963 -0.53735,0.328807 -1.04806,0.716206 -2.97365,1.026536 -4.35258,0.701464 z m 3.0642,-3.548805 c -0.92846,1.083082 1.88939,-2.350765 1.21146,-3.8066814 -0.48346,-1.0382805 -1.50945,-1.5906565 -2.66127,-1.432782 -1.27446,0.1746852 -2.08927,1.0966254 -2.20116,2.4905904 -0.1349,1.680494 0.91635,2.924711 2.4711,2.924711 0.41747,0 2.77051,-2.031377 1.17987,-0.175838 z"
     id="path80"
     sodipodi:nodetypes="cscsssccccccccssccssssss" />
  <path
     style="fill:#f9f9f9;stroke-width:0.13015"
     d="M 113.75094,10.2603 V 4.4035581 h 1.28414 1.28415 l 0.28007,0.6739327 0.28008,0.6739327 0.42056,-0.3999366 c 0.23131,-0.2199651 0.74269,-0.5671153 1.13639,-0.7714449 0.64758,-0.336089 0.83991,-0.3715082 2.01732,-0.3715082 1.16291,0 1.37251,0.037446 1.9683,0.3516513 0.8484,0.4474188 1.6504,1.3569096 2.0256,2.2970751 0.27943,0.7002037 0.29547,0.9365832 0.33917,4.9973748 l 0.0459,4.262406 h -1.89663 -1.89662 l -0.01,-3.546582 c -0.0109,-3.8524699 -0.0851,-4.3877367 -0.66859,-4.8234054 -0.79443,-0.5931292 -2.15605,-0.2070202 -2.58252,0.7323172 -0.22322,0.4916658 -0.24749,0.8886721 -0.25007,4.0910882 l -0.003,3.546582 h -1.88717 -1.88717 z"
     id="path82" />
  <path
     style="fill:#f9f9f9;stroke-width:0.13015"
     d="M 127.33719,8.1703916 V 0.23125353 h 1.88717 1.88717 V 4.6640279 c 0,2.6953783 0.0474,4.4034937 0.12088,4.3580674 0.0665,-0.041089 0.71706,-1.0987586 1.44573,-2.3503776 L 134.003,4.3960473 h 2.06831 c 1.13757,0 2.06831,0.030113 2.06831,0.066921 0,0.036806 -0.76138,1.2770424 -1.69195,2.7560801 -0.93057,1.4790379 -1.68877,2.7520492 -1.68488,2.8289146 0.004,0.07686 0.84427,1.45752 1.86753,3.068123 l 1.86047,2.928368 -2.0903,0.03589 c -1.14966,0.01974 -2.15111,0.01214 -2.22544,-0.0169 -0.0743,-0.02903 -0.75011,-1.141676 -1.50172,-2.472543 -0.75162,-1.330869 -1.4105,-2.421403 -1.46419,-2.423415 -0.0537,-0.0019 -0.0976,1.109125 -0.0976,2.469191 v 2.472845 h -1.88717 -1.88717 z"
     id="path84" />
  <path
     style="fill:#2d314d;fill-opacity:1;stroke-width:0.13013;opacity:1"
     d="m 104.34982,12.837997 c -1.97555,-0.429085 -2.5844,-3.2284276 -0.99336,-4.5672016 1.20598,-1.0147653 3.13544,-0.5990277 3.69356,0.7958451 0.18805,0.4700017 0.19014,0.6004555 0.02,1.2534685 -0.28531,1.095389 -0.64952,1.707389 -1.26382,2.123626 -0.72682,0.492491 -0.85029,0.525914 -1.45643,0.394262 z"
     id="path891" />
</svg>
